<?xml version="1.0" encoding="utf-8"?>
<!-- Generator: Adobe Illustrator 21.0.2, SVG Export Plug-In . SVG Version: 6.00 Build 0)  -->
<svg version="1.1" id="Capa_1" xmlns="http://www.w3.org/2000/svg" xmlns:xlink="http://www.w3.org/1999/xlink" x="0px" y="0px"
	 viewBox="0 0 100 100" style="enable-background:new 0 0 100 100;" xml:space="preserve">
<style type="text/css">
	.st0{fill:#724C99;}
	.st1{fill:#020203;}
	.st2{fill:#4F266F;}
	.st3{fill:#775DA5;}
	.st4{fill:#4B338A;}
</style>
<g>
	<polygon class="st0" points="6.4,63.5 48.3,99.3 25.9,49.7 	"/>
	<polygon class="st1" points="4.9,0.7 4.9,0.7 4.9,0.7 	"/>
	<polygon class="st2" points="4.9,59.7 24.3,46.1 4.9,3.1 	"/>
	<polygon class="st3" points="46.6,30.3 6.5,1.8 25.9,44.9 	"/>
	<polygon class="st4" points="72.5,48.5 50,32.7 50,32.7 50,32.7 27.5,48.5 50,98.4 	"/>
	<polygon class="st0" points="93.6,63.5 74.1,49.7 51.7,99.3 	"/>
	<polygon class="st1" points="95.1,0.7 95.1,0.7 95.1,0.7 	"/>
	<polygon class="st2" points="95.1,59.7 95.1,3.1 75.7,46.1 	"/>
	<polygon class="st3" points="53.4,30.3 74.1,44.9 93.5,1.8 	"/>
</g>
</svg>
