<?xml version="1.0" encoding="utf-8"?>
<!-- Generator: Adobe Illustrator 21.0.2, SVG Export Plug-In . SVG Version: 6.00 Build 0)  -->
<svg version="1.1" id="Capa_1" xmlns="http://www.w3.org/2000/svg" xmlns:xlink="http://www.w3.org/1999/xlink" x="0px" y="0px"
	 viewBox="0 0 120 140" style="enable-background:new 0 0 120 140;" xml:space="preserve">
<style type="text/css">
	.st0{fill:#FFFFFF;}
	.st1{fill:url(#SVGID_1_);}
	.st2{fill:url(#SVGID_2_);}
	.st3{fill:#724C99;}
	.st4{fill:#020203;}
	.st5{fill:#4F266F;}
	.st6{fill:#775DA5;}
	.st7{fill:#4B338A;}
</style>
<g id="Capa_2">
	<polygon class="st0" points="120,0 0,0 0,75.3 61.6,125.7 120,75.8 	"/>
</g>
<g id="Capa_3">
	
		<linearGradient id="SVGID_1_" gradientUnits="userSpaceOnUse" x1="33.4066" y1="41.2809" x2="31.0316" y2="38.6559" gradientTransform="matrix(1 0 0 -1 0 140)">
		<stop  offset="0" style="stop-color:#000000"/>
		<stop  offset="1" style="stop-color:#2581C4;stop-opacity:0"/>
	</linearGradient>
	<polygon class="st1" points="0,73.1 61.6,125.7 61.6,130.1 0,76.6 	"/>
	
		<linearGradient id="SVGID_2_" gradientUnits="userSpaceOnUse" x1="71.8055" y1="41.2913" x2="69.4305" y2="38.6663" gradientTransform="matrix(-1 0 0 -1 161.5896 140)">
		<stop  offset="0" style="stop-color:#000000"/>
		<stop  offset="1" style="stop-color:#2581C4;stop-opacity:0"/>
	</linearGradient>
	<polygon class="st2" points="123.2,73.1 61.6,125.7 61.6,130.1 123.2,76.6 	"/>
</g>
<g id="Capa_1_1_">
	<g>
		<polygon class="st3" points="18.9,68.9 59.9,104 38,55.4 		"/>
		<path class="st4" d="M17.5,7.5L17.5,7.5L17.5,7.5z"/>
		<polygon class="st5" points="17.5,65.2 36.4,51.9 17.5,9.8 		"/>
		<polygon class="st6" points="58.3,36.4 19,8.5 38,50.7 		"/>
		<polygon class="st7" points="83.6,54.3 61.6,38.8 61.6,38.8 61.6,38.8 39.6,54.3 61.6,103.1 		"/>
		<polygon class="st3" points="104.3,68.9 85.2,55.4 63.3,104 		"/>
		<path class="st4" d="M105.7,7.5L105.7,7.5L105.7,7.5z"/>
		<polygon class="st5" points="105.7,65.2 105.7,9.8 86.7,51.9 		"/>
		<polygon class="st6" points="64.9,36.4 85.2,50.7 104.2,8.5 		"/>
	</g>
</g>
</svg>
