<?xml version="1.0" encoding="utf-8"?>
<!-- Generator: Adobe Illustrator 21.0.2, SVG Export Plug-In . SVG Version: 6.00 Build 0)  -->
<svg version="1.1" id="Capa_1" xmlns="http://www.w3.org/2000/svg" xmlns:xlink="http://www.w3.org/1999/xlink" x="0px" y="0px"
	 viewBox="0 0 120 140" style="enable-background:new 0 0 120 140;" xml:space="preserve">
<style type="text/css">
	.st0{fill:#FFFFFF;}
	.st1{fill:url(#SVGID_1_);}
	.st2{fill:url(#SVGID_2_);}
	.st3{fill:#724C99;}
	.st4{fill:#020203;}
	.st5{fill:#4F266F;}
	.st6{fill:#775DA5;}
	.st7{fill:#4B338A;}
</style>
<g id="Capa_2">
	<polygon class="st0" points="120,0 0,0 0,75.3 60.6,125.7 120,75.8 	"/>
</g>
<g id="Capa_3">
	<linearGradient id="SVGID_1_" gradientUnits="userSpaceOnUse" x1="32.5816" y1="99.0783" x2="30.5305" y2="101.3452">
		<stop  offset="0" style="stop-color:#000000"/>
		<stop  offset="1" style="stop-color:#2581C4;stop-opacity:0"/>
	</linearGradient>
	<polygon class="st1" points="0,73.1 60.6,125.7 60.6,130.1 0,76.6 	"/>
	
		<linearGradient id="SVGID_2_" gradientUnits="userSpaceOnUse" x1="74.1609" y1="99.7765" x2="71.5335" y2="102.6805" gradientTransform="matrix(-1 0 0 1 161.5896 0)">
		<stop  offset="0" style="stop-color:#000000"/>
		<stop  offset="1" style="stop-color:#2581C4;stop-opacity:0"/>
	</linearGradient>
	<polygon class="st2" points="120,75.8 60.6,125.7 60.6,130.1 120,79.3 	"/>
</g>
<g id="Capa_1_1_">
	<g>
		<polygon class="st3" points="17.9,68.6 58.9,103.7 37,55.1 		"/>
		<path class="st4" d="M16.5,7.2L16.5,7.2L16.5,7.2z"/>
		<polygon class="st5" points="16.5,64.8 35.4,51.6 16.5,9.5 		"/>
		<polygon class="st6" points="57.3,36.1 18,8.2 37,50.4 		"/>
		<polygon class="st7" points="82.6,54 60.6,38.5 60.6,38.5 60.6,38.5 38.6,54 60.6,102.8 		"/>
		<polygon class="st3" points="103.3,68.6 84.2,55.1 62.3,103.7 		"/>
		<path class="st4" d="M104.7,7.2L104.7,7.2L104.7,7.2z"/>
		<polygon class="st5" points="104.7,64.8 104.7,9.5 85.7,51.6 		"/>
		<polygon class="st6" points="63.9,36.1 84.2,50.4 103.2,8.2 		"/>
	</g>
</g>
</svg>
