<?xml version="1.0" encoding="utf-8"?>
<!-- Generator: Adobe Illustrator 21.0.2, SVG Export Plug-In . SVG Version: 6.00 Build 0)  -->
<svg version="1.1" id="Capa_1" xmlns="http://www.w3.org/2000/svg" xmlns:xlink="http://www.w3.org/1999/xlink" x="0px" y="0px"
	 viewBox="0 0 350 150" style="enable-background:new 0 0 350 150;" xml:space="preserve">
<style type="text/css">
	.st0{fill:none;stroke:#000000;stroke-width:5.6693;stroke-miterlimit:10;}
</style>
<path class="st0" d="M130.5,6.6c-35,0-63.3,28.3-63.3,63.3c0,18.1,7.6,34.4,19.8,46c0,0,0,0,0-0.1c0-16,8.6-29.9,21.4-37.4
	c-3.8-4.8-6-10.8-6-17.4c0-15.5,12.6-28.1,28.1-28.1s28.1,12.6,28.1,28.1c0,6.6-2.3,12.6-6,17.4C165.4,86,174,99.9,174,115.8
	c0,0,0,0,0,0.1c12.2-11.5,19.8-27.9,19.8-46C193.7,34.9,165.4,6.6,130.5,6.6z"/>
</svg>
